<svg width="285" height="151" viewBox="0 0 285 151" fill="none" xmlns="http://www.w3.org/2000/svg">
<path d="M124.132 30.0905C125.455 30.0905 126.446 31.1725 126.329 32.4958L120.645 95.8241C120.528 97.1475 120.162 99.2781 119.829 100.56C119.829 100.56 118.722 104.871 116.741 107.559C115.11 109.89 112.697 112.112 109.376 113.86C106.047 115.724 101.685 116.773 95.9927 116.773C90.2999 116.773 85.972 115.724 82.9758 113.86C79.9713 112.112 78.1153 109.89 76.9001 107.559C75.402 104.879 75.0774 100.635 75.0774 100.635C74.9776 99.3114 74.9859 97.1475 75.1107 95.8325L80.7952 32.5041C80.9117 31.1808 82.0936 30.0989 83.4252 30.0989H95.6764C96.9997 30.0989 97.9902 31.1808 97.8736 32.5041L92.4055 93.4521C92.289 94.7755 92.289 96.7729 92.4055 97.8965C92.5221 99.0201 94.9024 101.642 95.8928 102.158H97.316C100.321 102.158 101.219 100.943 101.219 100.943C102.01 99.8773 102.834 98.5873 103.059 98.0713C103.283 97.5553 103.675 94.7755 103.791 93.4521L109.259 32.5041C109.376 31.1808 110.558 30.0989 111.889 30.0989H124.14L124.132 30.0905Z" fill="#1A274C"/>
<path d="M148.36 73.4025C148.002 72.1291 147.461 70.1899 147.17 69.1079C146.878 68.0259 146.421 67.1271 146.163 67.1271C145.905 67.1271 145.588 68.209 145.472 69.524L141.543 113.294C141.427 114.617 140.245 115.691 138.922 115.691H128.094C126.77 115.691 125.78 114.609 125.897 113.294L133.146 32.4875C133.262 31.1642 134.444 30.0905 135.767 30.0905H146.121C147.444 30.0905 148.826 31.1309 149.184 32.4126L160.47 72.3871C160.827 73.6605 161.368 75.5997 161.66 76.6817C161.951 77.7636 162.409 78.6625 162.667 78.6625C162.925 78.6625 163.241 77.5805 163.358 76.2655L167.286 32.4958C167.402 31.1725 168.584 30.0989 169.908 30.0989H180.736C182.059 30.0989 183.049 31.1808 182.933 32.4958L175.684 113.302C175.567 114.625 174.385 115.699 173.062 115.699H162.708C161.385 115.699 160.003 114.659 159.646 113.377L148.36 73.4025Z" fill="#1A274C"/>
<path d="M256.598 98.1212C256.54 98.7704 256.365 99.8108 256.199 100.443C256.199 100.443 254.784 105.995 252.803 108.691C251.172 111.038 248.758 113.269 245.437 115.033C242.108 116.914 237.747 117.971 232.054 117.971C226.361 117.971 222.033 116.914 219.037 115.033C216.033 113.269 214.177 111.038 212.97 108.691C211.472 105.986 211.056 100.477 211.056 100.477C211.006 99.8274 211.014 98.7704 211.072 98.1296L215.425 49.6242C215.483 48.975 215.666 47.9346 215.825 47.3104C215.825 47.3104 217.223 41.8756 219.212 39.179C220.843 36.832 223.107 34.485 226.428 32.7205C229.749 30.9561 234.276 29.7826 239.969 29.7826C245.662 29.7826 249.823 30.9561 252.828 32.7205C255.832 34.485 257.83 36.832 259.045 39.179C260.543 41.884 260.968 47.2771 260.968 47.2771C261.018 47.9263 261.009 48.9833 260.951 49.6242L256.598 98.1296V98.1212ZM243.873 49.6242C243.931 48.975 243.939 47.918 243.897 47.2688L242.882 44.0396C242.533 43.4903 241.767 42.8161 241.184 42.5331C241.184 42.5331 240.277 42.1004 238.854 42.1004C235.849 42.1004 234.276 43.7483 233.511 45.2713C232.953 46.2118 232.778 47.2771 232.778 47.2771C232.678 47.918 232.545 48.9667 232.487 49.6159L228.134 98.1212C228.076 98.7704 228.084 99.8274 228.151 100.468L229.233 103.739C229.607 104.263 230.39 104.938 230.964 105.237C230.964 105.237 231.73 105.637 233.153 105.637C236.157 105.637 237.797 103.415 237.797 103.415C238.18 102.89 238.679 102.041 238.895 101.525C239.112 101.009 239.461 98.7621 239.52 98.1212L243.873 49.6159V49.6242Z" fill="#1A274C"/>
<path d="M72.797 26.7364C71.6152 24.0565 69.6426 21.3682 66.6631 19.3541C63.6835 17.34 59.5304 16 53.8459 16C48.1615 16 43.6089 17.34 40.2631 19.3541C36.9173 21.3682 34.6286 24.0482 32.964 26.7364C30.9499 29.8242 29.4434 36.1912 29.4434 36.1912C29.2936 36.8237 29.1272 37.864 29.0689 38.5132L24.0586 94.2595C24.0003 94.9086 23.9837 95.9656 24.017 96.6148C24.017 96.6148 24.3748 103.082 25.8313 106.169C27.0132 108.849 30.9665 112.603 30.9665 112.603C31.4409 113.052 32.3065 113.635 32.8974 113.91C32.8974 113.91 39.1146 116.773 44.8074 116.773C50.5002 116.773 54.878 115.566 58.2321 113.419C61.5778 111.404 64.0164 108.858 65.681 106.169C67.6951 103.082 69.2182 96.5815 69.2182 96.5815C69.368 95.949 69.5345 94.9003 69.5927 94.2595L70.5998 83.0569C70.658 82.4078 70.708 81.8834 70.708 81.8834C70.708 81.8834 70.7579 81.3508 70.8162 80.7099L71.7067 70.7891C71.765 70.1399 71.2822 69.6156 70.6331 69.6156H50.908C50.2588 69.6156 49.6845 70.1483 49.6263 70.7891L48.3029 85.5122C48.2447 86.1614 48.7274 86.6857 49.3766 86.6857H53.1302C53.7794 86.6857 54.2621 87.2183 54.2038 87.8592L53.6295 94.2595C53.5713 94.9086 53.4464 95.9573 53.3466 96.5982C53.3466 96.5982 53.2051 97.3888 52.972 97.9798C52.739 98.5707 52.2563 99.4862 51.8818 100.019C51.8818 100.019 50.0174 102.674 46.3887 102.674C44.9655 102.674 44.1748 102.208 44.1748 102.208C43.6172 101.875 42.8681 101.159 42.5103 100.618L41.2036 96.5982C41.112 95.9573 41.0787 94.9003 41.137 94.2595L46.139 38.5132C46.1973 37.864 46.3554 36.8154 46.4886 36.1828C46.4886 36.1828 46.7882 34.7846 47.3541 33.711C48.3029 31.9632 49.8926 30.0905 52.8971 30.0905C54.6366 30.0905 55.7019 30.6315 55.7019 30.6315C56.2845 30.9228 57.0419 31.6136 57.3831 32.1629L58.6316 36.1662C58.6815 36.8154 58.6815 37.8724 58.6316 38.5132L57.6245 49.7157C57.5662 50.3649 58.049 50.8893 58.6981 50.8893H72.306C72.9551 50.8893 73.5294 50.3566 73.5877 49.7157L74.5947 38.5132C74.653 37.864 74.6696 36.807 74.6363 36.1579C74.6363 36.1579 74.2701 29.8242 72.8136 26.7364H72.797Z" fill="#1A274C"/>
<path d="M175.692 123.414C175.817 121.999 177.04 120.776 178.405 120.701C179.77 120.626 183.349 117.846 183.798 117.147C184.248 116.448 184.93 112.436 185.063 111.013L192.096 32.6623C192.221 31.2474 193.495 30.0905 194.909 30.0905H206.811C208.234 30.0905 209.291 31.2474 209.166 32.6623L201.934 113.294C201.809 114.709 201.426 116.997 201.093 118.379C201.093 118.379 199.196 126.194 194.918 129.823C190.64 133.443 177.223 134.8 177.223 134.8C175.809 134.941 174.752 133.901 174.885 132.486L175.7 123.414H175.692Z" fill="#1A274C"/>
</svg>
