<?xml version="1.0" encoding="UTF-8"?>
<svg id="_レイヤー_2" data-name="レイヤー 2" xmlns="http://www.w3.org/2000/svg" viewBox="0 0 336.75 169.7">
  <defs>
    <style>
      .cls-1 {
        fill: #fff;
      }
    </style>
  </defs>
  <g id="_レイヤー_1-2" data-name="レイヤー 1">
    <g>
      <path class="cls-1" d="M23.61,79.17c.24-1.42.03-2.57-.62-3.46-.65-.89-1.69-1.33-3.11-1.33-1.18,0-4.73.24-10.65.71-1.19.12-2.1-.21-2.75-.98-.65-.77-.98-1.63-.98-2.57,0-1.07.32-1.95.98-2.66.65-.71,1.57-1,2.75-.89,6.86.47,10.94.71,12.25.71,2.49,0,3.91-1.36,4.26-4.08.71-6.04,1.18-11.18,1.42-15.44.12-1.54-.18-2.69-.89-3.46-.71-.77-1.84-1.15-3.37-1.15l-14.2.71-4.97.35c-1.18.12-2.1-.21-2.75-.98-.65-.77-.98-1.63-.98-2.57,0-1.06.33-1.95.98-2.66.65-.71,1.57-1,2.75-.89,3.31.24,5.56.35,6.75.35l13.14.71c2.84,0,4.32-1.42,4.44-4.26.35-4.97.53-10.12.53-15.44,0-2.96-1.48-4.44-4.44-4.44-2.25.12-7.22.47-14.91,1.06-1.19.12-2.1-.21-2.75-.98-.65-.77-.98-1.63-.98-2.57,0-1.06.32-1.95.98-2.66.65-.71,1.57-1,2.75-.89l4.26.35c7.46.47,13.19.71,17.22.71h18.11c1.06-.12,2.04-.44,2.93-.98.89-.53,1.86-1.27,2.93-2.22,1.78-1.77,3.25-2.66,4.44-2.66,1.89-.12,3.88.33,5.95,1.33,2.07,1.01,3.82,2.25,5.24,3.73,1.42,1.48,2.19,2.69,2.31,3.64.12.83,0,1.45-.35,1.86-.36.42-.95.98-1.78,1.69-1.07.95-1.86,1.81-2.4,2.57-.53.77-.8,1.98-.8,3.64v7.1c0,2.25.65,3.37,1.95,3.37.83,0,1.77-.35,2.84-1.06,2.13-1.42,4.26-2.13,6.39-2.13,3.31,0,6.51,1.77,9.59,5.33,1.3,1.54,1.95,3.02,1.95,4.44,0,1.3-.53,2.37-1.6,3.2-1.07.83-2.6,1.24-4.62,1.24l-12.07.18c-2.96,0-4.44,1.48-4.44,4.44v27.34c0,2.13-.8,3.88-2.4,5.24-1.6,1.36-3.28,2.04-5.06,2.04-1.19,0-2.16-.38-2.93-1.15-.77-.77-1.1-1.86-.98-3.28v-.89c0-2.96-1.48-4.44-4.44-4.44h-12.25c-2.72,0-4.32,1.36-4.79,4.08-1.3,6.86-2.78,12.72-4.44,17.57-.12.24-.18.59-.18,1.07,0,.83.59,1.66,1.77,2.48.59.36,1.33.83,2.22,1.42.89.59,1.62.89,2.22.89h17.22c1.06,0,2.1-.27,3.11-.8,1-.53,1.92-1.15,2.75-1.86.71-.59,1.48-1.15,2.31-1.69.83-.53,1.66-.8,2.48-.8,1.89,0,3.82.59,5.77,1.77,1.95,1.18,3.61,2.55,4.97,4.08,1.36,1.54,2.04,2.78,2.04,3.73,0,.83-.18,1.45-.53,1.86-.35.42-.89.92-1.6,1.51-.95.71-1.69,1.48-2.22,2.31-.53.83-.8,2.07-.8,3.73v37.99c0,2.25-.83,4.02-2.48,5.33-1.66,1.3-3.49,1.95-5.5,1.95-1.66,0-2.72-.5-3.2-1.51-.47-1.01-.71-2.34-.71-3.99,0-2.13-.53-3.82-1.6-5.06-1.07-1.24-2.61-1.86-4.62-1.86h-14.91c-2.01,0-3.55.44-4.62,1.33-1.06.89-1.6,2.16-1.6,3.82,0,2.13-.83,3.88-2.48,5.24-1.66,1.36-3.43,2.04-5.33,2.04-1.18,0-2.16-.35-2.93-1.06-.77-.71-1.15-1.72-1.15-3.02l.18-7.28c.12-1.18.18-2.9.18-5.15l.18-18.64c0-1.54-.42-2.31-1.24-2.31-.59,0-1.24.53-1.95,1.6-4.02,6.63-8.4,12.31-13.13,17.04-1.07,1.06-2.07,1.6-3.02,1.6-1.07,0-1.6-.59-1.6-1.78,0-.95.47-2.07,1.42-3.37,10.41-13.61,17.81-33.31,22.19-59.11ZM32.31,137.04c0,1.89.56,3.4,1.69,4.53,1.12,1.13,2.63,1.69,4.53,1.69l15.44.18c2.01,0,3.55-.56,4.62-1.69,1.07-1.12,1.6-2.63,1.6-4.53v-24.67c0-2.01-.53-3.55-1.6-4.62-1.07-1.06-2.6-1.6-4.62-1.6h-15.44c-1.89,0-3.4.53-4.53,1.6-1.13,1.07-1.69,2.6-1.69,4.62v24.5ZM37.28,67.81c.71.83,1.83,1.24,3.37,1.24h9.05c2.01,0,3.55-.56,4.62-1.69,1.07-1.12,1.6-2.63,1.6-4.53v-13.67c0-2.96-1.48-4.44-4.44-4.44l-8.52-.18c-2.84,0-4.38,1.6-4.62,4.79-.59,6.39-1.18,11.36-1.77,14.91-.24,1.54,0,2.72.71,3.55ZM40.3,38.43c.83.77,1.95,1.15,3.37,1.15h7.81c2.96,0,4.44-1.48,4.44-4.44v-13.49c0-2.01-.53-3.55-1.6-4.62-1.06-1.07-2.6-1.6-4.62-1.6h-5.5c-2.96,0-4.44,1.6-4.44,4.79l-.18,4.97c0,2.25-.12,5.5-.35,9.76-.12,1.54.24,2.69,1.06,3.46ZM80.15,113.52c-.65-.77-.98-1.62-.98-2.57,0-1.06.32-1.95.98-2.66.65-.71,1.57-1,2.75-.89l8.17.53c5.09.36,8.93.53,11.54.53h7.1c2.01,0,3.55-.56,4.62-1.69,1.07-1.12,1.6-2.63,1.6-4.53v-12.25c0-2.01-.56-3.55-1.69-4.62-1.13-1.07-2.69-1.6-4.71-1.6-4.62.12-8.88.35-12.78.71-.83,0-2.66.12-5.5.35-1.18.12-2.1-.21-2.75-.98-.65-.77-.98-1.62-.98-2.57,0-1.06.32-1.95.98-2.66.65-.71,1.57-1,2.75-.89l7.1.53,11.36.53c2.01,0,3.55-.53,4.62-1.6,1.07-1.06,1.6-2.6,1.6-4.62v-12.6c0-2.01-.53-3.55-1.6-4.62-1.06-1.07-2.6-1.6-4.62-1.6h-4.08c-3.2,0-7.4.18-12.6.53l-7.1.53c-1.18.12-2.1-.21-2.75-.98-.65-.77-.98-1.62-.98-2.57,0-1.06.33-1.95.98-2.66.65-.71,1.57-1,2.75-.89l8.17.53c5.21.35,9.05.53,11.54.53h30.35c1.89,0,3.37-.35,4.44-1.06,1.06-.71,2.01-1.54,2.84-2.49.83-.95,1.48-1.66,1.95-2.13,2.6-2.6,5.21-3.91,7.81-3.91,2.96,0,6.21,1.89,9.76,5.68,1.3,1.54,1.95,3.02,1.95,4.44,0,1.3-.53,2.37-1.6,3.2-1.06.83-2.6,1.24-4.62,1.24l-25.03.18c-1.89,0-3.4.53-4.53,1.6-1.13,1.06-1.69,2.6-1.69,4.62v12.07c0,1.77.47,3.26,1.42,4.44.95,1.18,2.13,1.77,3.55,1.77.24,0,.83-.12,1.78-.35.95-.24,1.74-.62,2.4-1.15.65-.53,1.21-1.12,1.69-1.78.47-.65,1.07-1.33,1.78-2.04,2.6-2.6,5.21-3.91,7.81-3.91,2.96,0,6.21,1.89,9.76,5.68,1.3,1.54,1.95,3.02,1.95,4.44,0,1.3-.53,2.37-1.6,3.2-1.07.83-2.61,1.24-4.62,1.24l-19.7.18c-1.89,0-3.4.53-4.53,1.6-1.13,1.06-1.69,2.6-1.69,4.62v12.07c0,1.89.56,3.4,1.69,4.53,1.12,1.13,2.63,1.69,4.53,1.69h8.7c1.89,0,3.37-.35,4.44-1.06,1.06-.71,2.01-1.54,2.84-2.49.83-.95,1.48-1.66,1.95-2.13,2.6-2.6,5.21-3.91,7.81-3.91,2.96,0,6.21,1.89,9.76,5.68,1.3,1.54,1.95,3.02,1.95,4.44,0,1.3-.53,2.37-1.6,3.2-1.06.83-2.6,1.24-4.62,1.24l-31.24.18c-1.89,0-3.4.53-4.53,1.6-1.13,1.06-1.69,2.6-1.69,4.62v41.54c0,2.13-.8,3.88-2.4,5.24-1.6,1.36-3.28,2.04-5.06,2.04-1.19,0-2.16-.39-2.93-1.15-.77-.77-1.1-1.86-.98-3.28v-44.56c0-2.01-.53-3.55-1.6-4.62-1.06-1.06-2.6-1.6-4.62-1.6h-7.1c-3.2,0-7.4.18-12.6.53l-7.1.53c-1.18.12-2.1-.21-2.75-.98ZM85.38,7.28c0-.83.35-1.48,1.07-1.95.71-.47,1.54-.47,2.48,0,3.79,1.42,8.49,4.73,14.11,9.94,5.62,5.21,9.08,9.59,10.38,13.14.47,1.06.71,2.25.71,3.55,0,1.89-.65,3.43-1.95,4.62-1.3,1.18-2.84,1.78-4.62,1.78-1.18,0-2.31-.32-3.37-.98-1.07-.65-1.84-1.63-2.31-2.93-3.43-9.82-8.64-18.22-15.62-25.21-.59-.59-.89-1.24-.89-1.95ZM133.4,25.03c3.02-5.8,5.35-11.36,7.01-16.69.59-1.89,1.69-3.31,3.28-4.26,1.6-.95,3.4-1.42,5.41-1.42s3.93.47,5.77,1.42c1.83.95,3.28,2.37,4.35,4.26.47.83.71,1.6.71,2.31,0,1.42-.53,2.13-1.6,2.13-.47,0-.95-.18-1.42-.53-.71-.47-1.57-.29-2.57.53-1.01.83-2.28,2.43-3.82,4.79-3.31,4.97-7.31,10.09-11.98,15.35-4.68,5.27-8.2,8.73-10.56,10.38-1.18.83-2.19,1.24-3.02,1.24-1.07,0-1.6-.53-1.6-1.6,0-.95.29-1.77.89-2.49,3.08-4.5,6.12-9.64,9.14-15.44Z"/>
      <path class="cls-1" d="M178.22,66.57l-4.26.35c-1.18.12-2.1-.21-2.75-.98-.65-.77-.98-1.63-.98-2.57,0-1.06.32-1.95.98-2.66.65-.71,1.57-1,2.75-.89l4.26.35c7.46.47,13.19.71,17.22.71h43.85c1.89,0,3.37-.56,4.44-1.69,1.07-1.12,1.6-2.63,1.6-4.53v-1.42c0-2.01-.53-3.55-1.6-4.62-1.06-1.07-2.6-1.6-4.62-1.6h-13.14c-4.74,0-10.47.24-17.22.71l-4.26.35c-1.18.12-2.1-.21-2.75-.98-.65-.77-.98-1.62-.98-2.57,0-1.06.33-1.95.98-2.66.65-.71,1.57-1,2.75-.89l4.26.35c7.46.47,13.2.71,17.22.71h13.14c2.01,0,3.55-.56,4.62-1.69,1.07-1.12,1.6-2.63,1.6-4.53v-.53c0-2.01-.53-3.58-1.6-4.7-1.06-1.12-2.55-1.69-4.44-1.69-12.31,0-20.27.06-23.88.18-3.61.12-8.73.42-15.35.89-1.18.12-2.1-.21-2.75-.98-.65-.77-.98-1.62-.98-2.57,0-1.06.32-1.95.98-2.66.65-.71,1.57-1,2.75-.89,7.46.47,12.96.77,16.51.89,3.55.12,11.12.18,22.72.18,1.89,0,3.37-.53,4.44-1.6,1.07-1.06,1.6-2.6,1.6-4.62v-8.88c0-2.96.86-5.18,2.57-6.66,1.71-1.48,3.88-2.22,6.48-2.22,2.13,0,3.91.42,5.33,1.24,1.42.83,2.13,1.66,2.13,2.48,0,.95-.95,1.48-2.84,1.6-.71.12-1.27.53-1.69,1.24-.42.71-.62,1.48-.62,2.31v8.88c0,1.89.56,3.4,1.69,4.53,1.12,1.13,2.63,1.69,4.53,1.69,11.12,0,17.84-.18,20.15-.53,2.31-.35,4.08-1.18,5.32-2.48,1.24-1.3,2.16-2.19,2.75-2.66,2.49-2.49,5.15-3.73,7.99-3.73,1.66,0,3.31.53,4.97,1.6,2.01,1.3,3.61,2.78,4.79,4.44,1.18,1.66,1.78,3.14,1.78,4.44,0,2.6-2.07,3.91-6.21,3.91l-41.72.18c-1.89,0-3.37.56-4.44,1.69-1.07,1.13-1.6,2.63-1.6,4.53v.53c0,1.89.56,3.4,1.69,4.53,1.12,1.13,2.63,1.69,4.53,1.69h8.52c2.37,0,4.35-.5,5.95-1.51,1.6-1,3.29-2.4,5.06-4.17,2.6-2.6,5.26-3.91,7.99-3.91,1.54,0,3.08.47,4.62,1.42,1.77,1.18,3.43,2.6,4.97,4.26,1.3,1.54,1.95,3.02,1.95,4.44,0,1.3-.53,2.37-1.6,3.2-1.06.83-2.6,1.24-4.62,1.24l-32.84.18c-1.89,0-3.4.53-4.53,1.6-1.12,1.07-1.69,2.6-1.69,4.62v1.24c0,1.89.53,3.4,1.6,4.53,1.06,1.13,2.54,1.69,4.44,1.69h43.49c2.37,0,4.35-.5,5.95-1.51,1.6-1,3.29-2.4,5.06-4.17,2.6-2.6,5.26-3.91,7.99-3.91,1.54,0,3.08.47,4.62,1.42,1.78,1.18,3.43,2.6,4.97,4.26,1.3,1.54,1.95,3.02,1.95,4.44,0,1.3-.53,2.37-1.6,3.2-1.06.83-2.6,1.24-4.62,1.24h-135.09c-4.74,0-10.47.24-17.22.71ZM227.22,162.43c0,2.13-.8,3.88-2.4,5.24-1.6,1.36-3.28,2.04-5.06,2.04-1.18,0-2.16-.39-2.93-1.15-.77-.77-1.1-1.86-.98-3.28v-89.47c0-1.3.89-1.95,2.66-1.95,2.13,0,3.88.3,5.24.89,1.36.59,2.75,1.36,4.17,2.31,1.42.95,2.42,1.42,3.02,1.42h37.46c1.07,0,2.1-.27,3.11-.8,1-.53,1.92-1.12,2.75-1.77.83-.65,1.36-1.09,1.6-1.33.95-.83,2.01-1.24,3.2-1.24,1.42,0,3.02.53,4.79,1.6,2.48,1.42,4.44,2.96,5.86,4.62,1.42,1.66,2.13,2.78,2.13,3.37,0,.83-.18,1.45-.53,1.86-.36.42-.89.92-1.6,1.51-.95.71-1.69,1.48-2.22,2.31-.53.83-.8,2.07-.8,3.73v63.55c0,2.72-.74,5.03-2.22,6.92-1.48,1.89-3.35,3.19-5.59,3.91-.83.35-1.72.53-2.66.53-2.01,0-3.73-1.18-5.15-3.55-1.42-2.37-3.7-4.26-6.83-5.68-3.14-1.42-7.49-2.9-13.05-4.44-1.18-.35-1.78-1.06-1.78-2.13,0-.71.27-1.3.8-1.77.53-.47,1.15-.65,1.86-.53,1.06.12,3.11.42,6.12.89,3.02.47,6.06.71,9.14.71,2.13,0,3.99-.74,5.59-2.22,1.6-1.48,2.4-3.82,2.4-7.01v-7.46c0-2.01-.53-3.55-1.6-4.62-1.06-1.06-2.55-1.66-4.44-1.77-1.18-.12-3.73-.18-7.63-.18l-18.11.18c-2.84.12-6.27.18-10.29.18-1.89,0-3.37.53-4.44,1.6s-1.6,2.6-1.6,4.62v28.4ZM227.22,93.37c0,2.01.53,3.55,1.6,4.62,1.07,1.06,2.54,1.66,4.44,1.77,1.54.12,5.15.18,10.83.18l25.21-.18c1.89,0,3.37-.53,4.44-1.6,1.07-1.06,1.6-2.6,1.6-4.62v-4.08c0-2.01-.53-3.55-1.6-4.62-1.06-1.06-2.6-1.6-4.62-1.6h-35.68c-1.89,0-3.4.53-4.53,1.6-1.13,1.06-1.69,2.6-1.69,4.62v3.91ZM228.82,107.22c-1.07,1.07-1.6,2.6-1.6,4.62v3.73c0,2.01.53,3.55,1.6,4.62,1.07,1.07,2.54,1.66,4.44,1.78,1.54.12,5.15.18,10.83.18l25.21-.18c1.89,0,3.37-.53,4.44-1.6,1.07-1.06,1.6-2.6,1.6-4.62v-4.08c0-4.02-1.78-6.09-5.33-6.21-1.18-.12-3.73-.18-7.63-.18l-18.28.18c-2.96.12-6.57.18-10.83.18-1.89,0-3.37.53-4.44,1.6Z"/>
    </g>
  </g>
</svg>